<mxfile host="65bd71144e">
    <diagram name="Page-1" id="e56a1550-8fbb-45ad-956c-1786394a9013">
        <mxGraphModel dx="1141" dy="663" grid="1" gridSize="12" guides="1" tooltips="1" connect="1" arrows="1" fold="1" page="1" pageScale="1" pageWidth="1100" pageHeight="850" background="none" math="0" shadow="0">
            <root>
                <mxCell id="0"/>
                <mxCell id="1" parent="0"/>
                <mxCell id="2e49270ec7c68f3f-1" value="DADOS DO CRM" style="swimlane;html=1;fontStyle=0;childLayout=stackLayout;horizontal=1;startSize=26;fillColor=#A8DADC;horizontalStack=0;resizeParent=1;resizeLast=0;collapsible=1;marginBottom=0;swimlaneFillColor=#ffffff;align=center;rounded=1;shadow=0;comic=0;labelBackgroundColor=none;strokeWidth=1;fontFamily=Verdana;fontSize=14;strokeColor=#457B9D;fontColor=#1D3557;" parent="1" vertex="1">
                    <mxGeometry x="316" y="140" width="160" height="112" as="geometry"/>
                </mxCell>
                <mxCell id="2e49270ec7c68f3f-2" value="row 1" style="shape=partialRectangle;top=0;left=0;right=0;bottom=0;html=1;align=left;verticalAlign=middle;fillColor=none;spacingLeft=60;spacingRight=4;whiteSpace=wrap;overflow=hidden;rotatable=0;points=[[0,0.5],[1,0.5]];portConstraint=eastwest;dropTarget=0;fontStyle=5;rounded=1;labelBackgroundColor=none;strokeColor=#457B9D;fontColor=#1D3557;" parent="2e49270ec7c68f3f-1" vertex="1">
                    <mxGeometry y="26" width="160" height="30" as="geometry"/>
                </mxCell>
                <mxCell id="2e49270ec7c68f3f-3" value="PK,FK1" style="shape=partialRectangle;fontStyle=1;top=0;left=0;bottom=0;html=1;fillColor=none;align=left;verticalAlign=middle;spacingLeft=4;spacingRight=4;whiteSpace=wrap;overflow=hidden;rotatable=0;points=[];portConstraint=eastwest;part=1;rounded=1;labelBackgroundColor=none;strokeColor=#457B9D;fontColor=#1D3557;" parent="2e49270ec7c68f3f-2" vertex="1" connectable="0">
                    <mxGeometry width="56" height="30" as="geometry"/>
                </mxCell>
                <mxCell id="2e49270ec7c68f3f-4" value="row 2" style="shape=partialRectangle;top=0;left=0;right=0;bottom=1;html=1;align=left;verticalAlign=middle;fillColor=none;spacingLeft=60;spacingRight=4;whiteSpace=wrap;overflow=hidden;rotatable=0;points=[[0,0.5],[1,0.5]];portConstraint=eastwest;dropTarget=0;fontStyle=5;rounded=1;labelBackgroundColor=none;strokeColor=#457B9D;fontColor=#1D3557;" parent="2e49270ec7c68f3f-1" vertex="1">
                    <mxGeometry y="56" width="160" height="30" as="geometry"/>
                </mxCell>
                <mxCell id="2e49270ec7c68f3f-5" value="PK,FK2" style="shape=partialRectangle;fontStyle=1;top=0;left=0;bottom=0;html=1;fillColor=none;align=left;verticalAlign=middle;spacingLeft=4;spacingRight=4;whiteSpace=wrap;overflow=hidden;rotatable=0;points=[];portConstraint=eastwest;part=1;rounded=1;labelBackgroundColor=none;strokeColor=#457B9D;fontColor=#1D3557;" parent="2e49270ec7c68f3f-4" vertex="1" connectable="0">
                    <mxGeometry width="56" height="30" as="geometry"/>
                </mxCell>
                <mxCell id="2e49270ec7c68f3f-6" value="row 1" style="shape=partialRectangle;top=0;left=0;right=0;bottom=0;html=1;align=left;verticalAlign=top;fillColor=none;spacingLeft=60;spacingRight=4;whiteSpace=wrap;overflow=hidden;rotatable=0;points=[[0,0.5],[1,0.5]];portConstraint=eastwest;dropTarget=0;rounded=1;labelBackgroundColor=none;strokeColor=#457B9D;fontColor=#1D3557;" parent="2e49270ec7c68f3f-1" vertex="1">
                    <mxGeometry y="86" width="160" height="26" as="geometry"/>
                </mxCell>
                <mxCell id="2e49270ec7c68f3f-7" value="" style="shape=partialRectangle;top=0;left=0;bottom=0;html=1;fillColor=none;align=left;verticalAlign=top;spacingLeft=4;spacingRight=4;whiteSpace=wrap;overflow=hidden;rotatable=0;points=[];portConstraint=eastwest;part=1;rounded=1;labelBackgroundColor=none;strokeColor=#457B9D;fontColor=#1D3557;" parent="2e49270ec7c68f3f-6" vertex="1" connectable="0">
                    <mxGeometry width="56" height="26" as="geometry"/>
                </mxCell>
                <mxCell id="2e49270ec7c68f3f-8" value="OPERADORES" style="swimlane;html=1;fontStyle=0;childLayout=stackLayout;horizontal=1;startSize=26;fillColor=#A8DADC;horizontalStack=0;resizeParent=1;resizeLast=0;collapsible=1;marginBottom=0;swimlaneFillColor=#ffffff;align=center;rounded=1;shadow=0;comic=0;labelBackgroundColor=none;strokeWidth=1;fontFamily=Verdana;fontSize=14;swimlaneLine=1;strokeColor=#457B9D;fontColor=#1D3557;" parent="1" vertex="1">
                    <mxGeometry x="624" y="140" width="160" height="144" as="geometry"/>
                </mxCell>
                <mxCell id="2e49270ec7c68f3f-9" value="uniqueId" style="shape=partialRectangle;top=0;left=0;right=0;bottom=1;html=1;align=left;verticalAlign=middle;fillColor=none;spacingLeft=34;spacingRight=4;whiteSpace=wrap;overflow=hidden;rotatable=0;points=[[0,0.5],[1,0.5]];portConstraint=eastwest;dropTarget=0;fontStyle=5;rounded=1;labelBackgroundColor=none;strokeColor=#457B9D;fontColor=#1D3557;" parent="2e49270ec7c68f3f-8" vertex="1">
                    <mxGeometry y="26" width="160" height="30" as="geometry"/>
                </mxCell>
                <mxCell id="2e49270ec7c68f3f-10" value="PK" style="shape=partialRectangle;top=0;left=0;bottom=0;html=1;fillColor=none;align=left;verticalAlign=middle;spacingLeft=4;spacingRight=4;whiteSpace=wrap;overflow=hidden;rotatable=0;points=[];portConstraint=eastwest;part=1;rounded=1;labelBackgroundColor=none;strokeColor=#457B9D;fontColor=#1D3557;" parent="2e49270ec7c68f3f-9" vertex="1" connectable="0">
                    <mxGeometry width="30" height="30" as="geometry"/>
                </mxCell>
                <mxCell id="2e49270ec7c68f3f-11" value="row 1" style="shape=partialRectangle;top=0;left=0;right=0;bottom=0;html=1;align=left;verticalAlign=top;fillColor=none;spacingLeft=34;spacingRight=4;whiteSpace=wrap;overflow=hidden;rotatable=0;points=[[0,0.5],[1,0.5]];portConstraint=eastwest;dropTarget=0;rounded=1;labelBackgroundColor=none;strokeColor=#457B9D;fontColor=#1D3557;" parent="2e49270ec7c68f3f-8" vertex="1">
                    <mxGeometry y="56" width="160" height="26" as="geometry"/>
                </mxCell>
                <mxCell id="2e49270ec7c68f3f-12" value="" style="shape=partialRectangle;top=0;left=0;bottom=0;html=1;fillColor=none;align=left;verticalAlign=top;spacingLeft=4;spacingRight=4;whiteSpace=wrap;overflow=hidden;rotatable=0;points=[];portConstraint=eastwest;part=1;rounded=1;labelBackgroundColor=none;strokeColor=#457B9D;fontColor=#1D3557;" parent="2e49270ec7c68f3f-11" vertex="1" connectable="0">
                    <mxGeometry width="30" height="26" as="geometry"/>
                </mxCell>
                <mxCell id="2e49270ec7c68f3f-13" value="row 2" style="shape=partialRectangle;top=0;left=0;right=0;bottom=0;html=1;align=left;verticalAlign=top;fillColor=none;spacingLeft=34;spacingRight=4;whiteSpace=wrap;overflow=hidden;rotatable=0;points=[[0,0.5],[1,0.5]];portConstraint=eastwest;dropTarget=0;rounded=1;labelBackgroundColor=none;strokeColor=#457B9D;fontColor=#1D3557;" parent="2e49270ec7c68f3f-8" vertex="1">
                    <mxGeometry y="82" width="160" height="26" as="geometry"/>
                </mxCell>
                <mxCell id="2e49270ec7c68f3f-14" value="" style="shape=partialRectangle;top=0;left=0;bottom=0;html=1;fillColor=none;align=left;verticalAlign=top;spacingLeft=4;spacingRight=4;whiteSpace=wrap;overflow=hidden;rotatable=0;points=[];portConstraint=eastwest;part=1;rounded=1;labelBackgroundColor=none;strokeColor=#457B9D;fontColor=#1D3557;" parent="2e49270ec7c68f3f-13" vertex="1" connectable="0">
                    <mxGeometry width="30" height="26" as="geometry"/>
                </mxCell>
                <mxCell id="2e49270ec7c68f3f-15" value="row 3" style="shape=partialRectangle;top=0;left=0;right=0;bottom=0;html=1;align=left;verticalAlign=top;fillColor=none;spacingLeft=34;spacingRight=4;whiteSpace=wrap;overflow=hidden;rotatable=0;points=[[0,0.5],[1,0.5]];portConstraint=eastwest;dropTarget=0;rounded=1;labelBackgroundColor=none;strokeColor=#457B9D;fontColor=#1D3557;" parent="2e49270ec7c68f3f-8" vertex="1">
                    <mxGeometry y="108" width="160" height="26" as="geometry"/>
                </mxCell>
                <mxCell id="2e49270ec7c68f3f-16" value="" style="shape=partialRectangle;top=0;left=0;bottom=0;html=1;fillColor=none;align=left;verticalAlign=top;spacingLeft=4;spacingRight=4;whiteSpace=wrap;overflow=hidden;rotatable=0;points=[];portConstraint=eastwest;part=1;rounded=1;labelBackgroundColor=none;strokeColor=#457B9D;fontColor=#1D3557;" parent="2e49270ec7c68f3f-15" vertex="1" connectable="0">
                    <mxGeometry width="30" height="26" as="geometry"/>
                </mxCell>
                <mxCell id="2e49270ec7c68f3f-17" value="" style="shape=partialRectangle;top=0;left=0;right=0;bottom=0;html=1;align=left;verticalAlign=top;fillColor=none;spacingLeft=34;spacingRight=4;whiteSpace=wrap;overflow=hidden;rotatable=0;points=[[0,0.5],[1,0.5]];portConstraint=eastwest;dropTarget=0;rounded=1;labelBackgroundColor=none;strokeColor=#457B9D;fontColor=#1D3557;" parent="2e49270ec7c68f3f-8" vertex="1">
                    <mxGeometry y="134" width="160" height="10" as="geometry"/>
                </mxCell>
                <mxCell id="2e49270ec7c68f3f-18" value="" style="shape=partialRectangle;top=0;left=0;bottom=0;html=1;fillColor=none;align=left;verticalAlign=top;spacingLeft=4;spacingRight=4;whiteSpace=wrap;overflow=hidden;rotatable=0;points=[];portConstraint=eastwest;part=1;rounded=1;labelBackgroundColor=none;strokeColor=#457B9D;fontColor=#1D3557;" parent="2e49270ec7c68f3f-17" vertex="1" connectable="0">
                    <mxGeometry width="30" height="10" as="geometry"/>
                </mxCell>
                <mxCell id="2e49270ec7c68f3f-19" value="DADOS DO DISCADOR" style="swimlane;html=1;fontStyle=0;childLayout=stackLayout;horizontal=1;startSize=26;fillColor=#A8DADC;horizontalStack=0;resizeParent=1;resizeLast=0;collapsible=1;marginBottom=0;swimlaneFillColor=#ffffff;align=center;rounded=1;shadow=0;comic=0;labelBackgroundColor=none;strokeWidth=1;fontFamily=Verdana;fontSize=14;strokeColor=#457B9D;fontColor=#1D3557;" parent="1" vertex="1">
                    <mxGeometry x="300" y="348" width="192" height="154" as="geometry"/>
                </mxCell>
                <mxCell id="2e49270ec7c68f3f-20" value="uniqueId" style="shape=partialRectangle;top=0;left=0;right=0;bottom=1;html=1;align=left;verticalAlign=middle;fillColor=none;spacingLeft=34;spacingRight=4;whiteSpace=wrap;overflow=hidden;rotatable=0;points=[[0,0.5],[1,0.5]];portConstraint=eastwest;dropTarget=0;fontStyle=5;rounded=1;labelBackgroundColor=none;strokeColor=#457B9D;fontColor=#1D3557;" parent="2e49270ec7c68f3f-19" vertex="1">
                    <mxGeometry y="26" width="192" height="30" as="geometry"/>
                </mxCell>
                <mxCell id="2e49270ec7c68f3f-21" value="PK" style="shape=partialRectangle;top=0;left=0;bottom=0;html=1;fillColor=none;align=left;verticalAlign=middle;spacingLeft=4;spacingRight=4;whiteSpace=wrap;overflow=hidden;rotatable=0;points=[];portConstraint=eastwest;part=1;rounded=1;labelBackgroundColor=none;strokeColor=#457B9D;fontColor=#1D3557;" parent="2e49270ec7c68f3f-20" vertex="1" connectable="0">
                    <mxGeometry width="30" height="30" as="geometry"/>
                </mxCell>
                <mxCell id="2e49270ec7c68f3f-22" value="row 1" style="shape=partialRectangle;top=0;left=0;right=0;bottom=0;html=1;align=left;verticalAlign=top;fillColor=none;spacingLeft=34;spacingRight=4;whiteSpace=wrap;overflow=hidden;rotatable=0;points=[[0,0.5],[1,0.5]];portConstraint=eastwest;dropTarget=0;rounded=1;labelBackgroundColor=none;strokeColor=#457B9D;fontColor=#1D3557;" parent="2e49270ec7c68f3f-19" vertex="1">
                    <mxGeometry y="56" width="192" height="26" as="geometry"/>
                </mxCell>
                <mxCell id="2e49270ec7c68f3f-23" value="" style="shape=partialRectangle;top=0;left=0;bottom=0;html=1;fillColor=none;align=left;verticalAlign=top;spacingLeft=4;spacingRight=4;whiteSpace=wrap;overflow=hidden;rotatable=0;points=[];portConstraint=eastwest;part=1;rounded=1;labelBackgroundColor=none;strokeColor=#457B9D;fontColor=#1D3557;" parent="2e49270ec7c68f3f-22" vertex="1" connectable="0">
                    <mxGeometry width="30" height="26" as="geometry"/>
                </mxCell>
                <mxCell id="2e49270ec7c68f3f-24" value="row 2" style="shape=partialRectangle;top=0;left=0;right=0;bottom=0;html=1;align=left;verticalAlign=top;fillColor=none;spacingLeft=34;spacingRight=4;whiteSpace=wrap;overflow=hidden;rotatable=0;points=[[0,0.5],[1,0.5]];portConstraint=eastwest;dropTarget=0;rounded=1;labelBackgroundColor=none;strokeColor=#457B9D;fontColor=#1D3557;" parent="2e49270ec7c68f3f-19" vertex="1">
                    <mxGeometry y="82" width="192" height="26" as="geometry"/>
                </mxCell>
                <mxCell id="2e49270ec7c68f3f-25" value="" style="shape=partialRectangle;top=0;left=0;bottom=0;html=1;fillColor=none;align=left;verticalAlign=top;spacingLeft=4;spacingRight=4;whiteSpace=wrap;overflow=hidden;rotatable=0;points=[];portConstraint=eastwest;part=1;rounded=1;labelBackgroundColor=none;strokeColor=#457B9D;fontColor=#1D3557;" parent="2e49270ec7c68f3f-24" vertex="1" connectable="0">
                    <mxGeometry width="30" height="26" as="geometry"/>
                </mxCell>
                <mxCell id="2e49270ec7c68f3f-26" value="row 3" style="shape=partialRectangle;top=0;left=0;right=0;bottom=0;html=1;align=left;verticalAlign=top;fillColor=none;spacingLeft=34;spacingRight=4;whiteSpace=wrap;overflow=hidden;rotatable=0;points=[[0,0.5],[1,0.5]];portConstraint=eastwest;dropTarget=0;rounded=1;labelBackgroundColor=none;strokeColor=#457B9D;fontColor=#1D3557;" parent="2e49270ec7c68f3f-19" vertex="1">
                    <mxGeometry y="108" width="192" height="26" as="geometry"/>
                </mxCell>
                <mxCell id="2e49270ec7c68f3f-27" value="" style="shape=partialRectangle;top=0;left=0;bottom=0;html=1;fillColor=none;align=left;verticalAlign=top;spacingLeft=4;spacingRight=4;whiteSpace=wrap;overflow=hidden;rotatable=0;points=[];portConstraint=eastwest;part=1;rounded=1;labelBackgroundColor=none;strokeColor=#457B9D;fontColor=#1D3557;" parent="2e49270ec7c68f3f-26" vertex="1" connectable="0">
                    <mxGeometry width="30" height="26" as="geometry"/>
                </mxCell>
                <mxCell id="2e49270ec7c68f3f-28" value="" style="shape=partialRectangle;top=0;left=0;right=0;bottom=0;html=1;align=left;verticalAlign=top;fillColor=none;spacingLeft=34;spacingRight=4;whiteSpace=wrap;overflow=hidden;rotatable=0;points=[[0,0.5],[1,0.5]];portConstraint=eastwest;dropTarget=0;rounded=1;labelBackgroundColor=none;strokeColor=#457B9D;fontColor=#1D3557;" parent="2e49270ec7c68f3f-19" vertex="1">
                    <mxGeometry y="134" width="192" height="10" as="geometry"/>
                </mxCell>
                <mxCell id="2e49270ec7c68f3f-29" value="" style="shape=partialRectangle;top=0;left=0;bottom=0;html=1;fillColor=none;align=left;verticalAlign=top;spacingLeft=4;spacingRight=4;whiteSpace=wrap;overflow=hidden;rotatable=0;points=[];portConstraint=eastwest;part=1;rounded=1;labelBackgroundColor=none;strokeColor=#457B9D;fontColor=#1D3557;" parent="2e49270ec7c68f3f-28" vertex="1" connectable="0">
                    <mxGeometry width="30" height="10" as="geometry"/>
                </mxCell>
                <mxCell id="2e49270ec7c68f3f-30" value="INDICADORES_OP" style="swimlane;html=1;fontStyle=0;childLayout=stackLayout;horizontal=1;startSize=26;fillColor=#A8DADC;horizontalStack=0;resizeParent=1;resizeLast=0;collapsible=1;marginBottom=0;swimlaneFillColor=#ffffff;align=center;rounded=1;shadow=0;comic=0;labelBackgroundColor=none;strokeWidth=1;fontFamily=Verdana;fontSize=14;strokeColor=#457B9D;fontColor=#1D3557;" parent="1" vertex="1">
                    <mxGeometry x="624" y="353" width="160" height="144" as="geometry"/>
                </mxCell>
                <mxCell id="2e49270ec7c68f3f-31" value="uniqueId" style="shape=partialRectangle;top=0;left=0;right=0;bottom=1;html=1;align=left;verticalAlign=middle;fillColor=none;spacingLeft=34;spacingRight=4;whiteSpace=wrap;overflow=hidden;rotatable=0;points=[[0,0.5],[1,0.5]];portConstraint=eastwest;dropTarget=0;fontStyle=5;rounded=1;labelBackgroundColor=none;strokeColor=#457B9D;fontColor=#1D3557;" parent="2e49270ec7c68f3f-30" vertex="1">
                    <mxGeometry y="26" width="160" height="30" as="geometry"/>
                </mxCell>
                <mxCell id="2e49270ec7c68f3f-32" value="PK" style="shape=partialRectangle;top=0;left=0;bottom=0;html=1;fillColor=none;align=left;verticalAlign=middle;spacingLeft=4;spacingRight=4;whiteSpace=wrap;overflow=hidden;rotatable=0;points=[];portConstraint=eastwest;part=1;rounded=1;labelBackgroundColor=none;strokeColor=#457B9D;fontColor=#1D3557;" parent="2e49270ec7c68f3f-31" vertex="1" connectable="0">
                    <mxGeometry width="30" height="30" as="geometry"/>
                </mxCell>
                <mxCell id="2e49270ec7c68f3f-33" value="row 1" style="shape=partialRectangle;top=0;left=0;right=0;bottom=0;html=1;align=left;verticalAlign=top;fillColor=none;spacingLeft=34;spacingRight=4;whiteSpace=wrap;overflow=hidden;rotatable=0;points=[[0,0.5],[1,0.5]];portConstraint=eastwest;dropTarget=0;rounded=1;labelBackgroundColor=none;strokeColor=#457B9D;fontColor=#1D3557;" parent="2e49270ec7c68f3f-30" vertex="1">
                    <mxGeometry y="56" width="160" height="26" as="geometry"/>
                </mxCell>
                <mxCell id="2e49270ec7c68f3f-34" value="" style="shape=partialRectangle;top=0;left=0;bottom=0;html=1;fillColor=none;align=left;verticalAlign=top;spacingLeft=4;spacingRight=4;whiteSpace=wrap;overflow=hidden;rotatable=0;points=[];portConstraint=eastwest;part=1;rounded=1;labelBackgroundColor=none;strokeColor=#457B9D;fontColor=#1D3557;" parent="2e49270ec7c68f3f-33" vertex="1" connectable="0">
                    <mxGeometry width="30" height="26" as="geometry"/>
                </mxCell>
                <mxCell id="2e49270ec7c68f3f-35" value="row 2" style="shape=partialRectangle;top=0;left=0;right=0;bottom=0;html=1;align=left;verticalAlign=top;fillColor=none;spacingLeft=34;spacingRight=4;whiteSpace=wrap;overflow=hidden;rotatable=0;points=[[0,0.5],[1,0.5]];portConstraint=eastwest;dropTarget=0;rounded=1;labelBackgroundColor=none;strokeColor=#457B9D;fontColor=#1D3557;" parent="2e49270ec7c68f3f-30" vertex="1">
                    <mxGeometry y="82" width="160" height="26" as="geometry"/>
                </mxCell>
                <mxCell id="2e49270ec7c68f3f-36" value="" style="shape=partialRectangle;top=0;left=0;bottom=0;html=1;fillColor=none;align=left;verticalAlign=top;spacingLeft=4;spacingRight=4;whiteSpace=wrap;overflow=hidden;rotatable=0;points=[];portConstraint=eastwest;part=1;rounded=1;labelBackgroundColor=none;strokeColor=#457B9D;fontColor=#1D3557;" parent="2e49270ec7c68f3f-35" vertex="1" connectable="0">
                    <mxGeometry width="30" height="26" as="geometry"/>
                </mxCell>
                <mxCell id="2e49270ec7c68f3f-37" value="row 3" style="shape=partialRectangle;top=0;left=0;right=0;bottom=0;html=1;align=left;verticalAlign=top;fillColor=none;spacingLeft=34;spacingRight=4;whiteSpace=wrap;overflow=hidden;rotatable=0;points=[[0,0.5],[1,0.5]];portConstraint=eastwest;dropTarget=0;rounded=1;labelBackgroundColor=none;strokeColor=#457B9D;fontColor=#1D3557;" parent="2e49270ec7c68f3f-30" vertex="1">
                    <mxGeometry y="108" width="160" height="26" as="geometry"/>
                </mxCell>
                <mxCell id="2e49270ec7c68f3f-38" value="" style="shape=partialRectangle;top=0;left=0;bottom=0;html=1;fillColor=none;align=left;verticalAlign=top;spacingLeft=4;spacingRight=4;whiteSpace=wrap;overflow=hidden;rotatable=0;points=[];portConstraint=eastwest;part=1;rounded=1;labelBackgroundColor=none;strokeColor=#457B9D;fontColor=#1D3557;" parent="2e49270ec7c68f3f-37" vertex="1" connectable="0">
                    <mxGeometry width="30" height="26" as="geometry"/>
                </mxCell>
                <mxCell id="2e49270ec7c68f3f-39" value="" style="shape=partialRectangle;top=0;left=0;right=0;bottom=0;html=1;align=left;verticalAlign=top;fillColor=none;spacingLeft=34;spacingRight=4;whiteSpace=wrap;overflow=hidden;rotatable=0;points=[[0,0.5],[1,0.5]];portConstraint=eastwest;dropTarget=0;rounded=1;labelBackgroundColor=none;strokeColor=#457B9D;fontColor=#1D3557;" parent="2e49270ec7c68f3f-30" vertex="1">
                    <mxGeometry y="134" width="160" height="10" as="geometry"/>
                </mxCell>
                <mxCell id="2e49270ec7c68f3f-40" value="" style="shape=partialRectangle;top=0;left=0;bottom=0;html=1;fillColor=none;align=left;verticalAlign=top;spacingLeft=4;spacingRight=4;whiteSpace=wrap;overflow=hidden;rotatable=0;points=[];portConstraint=eastwest;part=1;rounded=1;labelBackgroundColor=none;strokeColor=#457B9D;fontColor=#1D3557;" parent="2e49270ec7c68f3f-39" vertex="1" connectable="0">
                    <mxGeometry width="30" height="10" as="geometry"/>
                </mxCell>
                <mxCell id="2e49270ec7c68f3f-55" value="" style="edgeStyle=orthogonalEdgeStyle;html=1;endArrow=ERoneToMany;startArrow=ERoneToMany;labelBackgroundColor=none;fontFamily=Verdana;fontSize=14;entryX=0;entryY=0.5;exitX=0;exitY=0.5;rounded=1;strokeColor=#457B9D;fontColor=default;startFill=0;" parent="1" source="2e49270ec7c68f3f-20" target="2e49270ec7c68f3f-6" edge="1">
                    <mxGeometry width="100" height="100" relative="1" as="geometry">
                        <mxPoint x="100" y="430" as="sourcePoint"/>
                        <mxPoint x="200" y="330" as="targetPoint"/>
                        <Array as="points">
                            <mxPoint x="252" y="389"/>
                            <mxPoint x="252" y="239"/>
                        </Array>
                    </mxGeometry>
                </mxCell>
                <mxCell id="2e49270ec7c68f3f-57" value="" style="edgeStyle=orthogonalEdgeStyle;html=1;endArrow=ERoneToMany;startArrow=ERoneToMany;labelBackgroundColor=none;fontFamily=Verdana;fontSize=14;rounded=1;strokeColor=#457B9D;fontColor=default;exitX=0.01;exitY=0.901;exitDx=0;exitDy=0;exitPerimeter=0;entryX=0.999;entryY=0.887;entryDx=0;entryDy=0;entryPerimeter=0;startFill=0;endFill=0;" parent="1" source="2e49270ec7c68f3f-9" target="2e49270ec7c68f3f-2" edge="1">
                    <mxGeometry width="100" height="100" relative="1" as="geometry">
                        <mxPoint x="588" y="192" as="sourcePoint"/>
                        <mxPoint x="516" y="192" as="targetPoint"/>
                        <Array as="points">
                            <mxPoint x="516" y="193"/>
                        </Array>
                    </mxGeometry>
                </mxCell>
                <mxCell id="2e49270ec7c68f3f-58" value="" style="edgeStyle=orthogonalEdgeStyle;html=1;endArrow=ERoneToMany;startArrow=ERmandOne;labelBackgroundColor=none;fontFamily=Verdana;fontSize=14;rounded=1;strokeColor=#457B9D;fontColor=default;exitX=-0.002;exitY=0.416;exitDx=0;exitDy=0;exitPerimeter=0;startFill=0;endFill=0;entryX=1.005;entryY=0.065;entryDx=0;entryDy=0;entryPerimeter=0;" parent="1" source="2e49270ec7c68f3f-33" target="2e49270ec7c68f3f-6" edge="1">
                    <mxGeometry width="100" height="100" relative="1" as="geometry">
                        <mxPoint x="540" y="420" as="sourcePoint"/>
                        <mxPoint x="552" y="261" as="targetPoint"/>
                        <Array as="points">
                            <mxPoint x="540" y="420"/>
                            <mxPoint x="540" y="228"/>
                        </Array>
                    </mxGeometry>
                </mxCell>
                <mxCell id="2e49270ec7c68f3f-80" value="CONTRATANTES" style="swimlane;html=1;fontStyle=0;childLayout=stackLayout;horizontal=1;startSize=26;fillColor=#A8DADC;horizontalStack=0;resizeParent=1;resizeLast=0;collapsible=1;marginBottom=0;swimlaneFillColor=#ffffff;align=center;rounded=1;shadow=0;comic=0;labelBackgroundColor=none;strokeWidth=1;fontFamily=Verdana;fontSize=14;strokeColor=#457B9D;fontColor=#1D3557;" parent="1" vertex="1">
                    <mxGeometry x="24" y="264" width="160" height="144" as="geometry"/>
                </mxCell>
                <mxCell id="2e49270ec7c68f3f-81" value="uniqueId" style="shape=partialRectangle;top=0;left=0;right=0;bottom=1;html=1;align=left;verticalAlign=middle;fillColor=none;spacingLeft=34;spacingRight=4;whiteSpace=wrap;overflow=hidden;rotatable=0;points=[[0,0.5],[1,0.5]];portConstraint=eastwest;dropTarget=0;fontStyle=5;rounded=1;labelBackgroundColor=none;strokeColor=#457B9D;fontColor=#1D3557;" parent="2e49270ec7c68f3f-80" vertex="1">
                    <mxGeometry y="26" width="160" height="30" as="geometry"/>
                </mxCell>
                <mxCell id="2e49270ec7c68f3f-82" value="PK" style="shape=partialRectangle;top=0;left=0;bottom=0;html=1;fillColor=none;align=left;verticalAlign=middle;spacingLeft=4;spacingRight=4;whiteSpace=wrap;overflow=hidden;rotatable=0;points=[];portConstraint=eastwest;part=1;rounded=1;labelBackgroundColor=none;strokeColor=#457B9D;fontColor=#1D3557;" parent="2e49270ec7c68f3f-81" vertex="1" connectable="0">
                    <mxGeometry width="30" height="30" as="geometry"/>
                </mxCell>
                <mxCell id="2e49270ec7c68f3f-83" value="row 1" style="shape=partialRectangle;top=0;left=0;right=0;bottom=0;html=1;align=left;verticalAlign=top;fillColor=none;spacingLeft=34;spacingRight=4;whiteSpace=wrap;overflow=hidden;rotatable=0;points=[[0,0.5],[1,0.5]];portConstraint=eastwest;dropTarget=0;rounded=1;labelBackgroundColor=none;strokeColor=#457B9D;fontColor=#1D3557;" parent="2e49270ec7c68f3f-80" vertex="1">
                    <mxGeometry y="56" width="160" height="26" as="geometry"/>
                </mxCell>
                <mxCell id="2e49270ec7c68f3f-84" value="" style="shape=partialRectangle;top=0;left=0;bottom=0;html=1;fillColor=none;align=left;verticalAlign=top;spacingLeft=4;spacingRight=4;whiteSpace=wrap;overflow=hidden;rotatable=0;points=[];portConstraint=eastwest;part=1;rounded=1;labelBackgroundColor=none;strokeColor=#457B9D;fontColor=#1D3557;" parent="2e49270ec7c68f3f-83" vertex="1" connectable="0">
                    <mxGeometry width="30" height="26" as="geometry"/>
                </mxCell>
                <mxCell id="2e49270ec7c68f3f-85" value="row 2" style="shape=partialRectangle;top=0;left=0;right=0;bottom=0;html=1;align=left;verticalAlign=top;fillColor=none;spacingLeft=34;spacingRight=4;whiteSpace=wrap;overflow=hidden;rotatable=0;points=[[0,0.5],[1,0.5]];portConstraint=eastwest;dropTarget=0;rounded=1;labelBackgroundColor=none;strokeColor=#457B9D;fontColor=#1D3557;" parent="2e49270ec7c68f3f-80" vertex="1">
                    <mxGeometry y="82" width="160" height="26" as="geometry"/>
                </mxCell>
                <mxCell id="2e49270ec7c68f3f-86" value="" style="shape=partialRectangle;top=0;left=0;bottom=0;html=1;fillColor=none;align=left;verticalAlign=top;spacingLeft=4;spacingRight=4;whiteSpace=wrap;overflow=hidden;rotatable=0;points=[];portConstraint=eastwest;part=1;rounded=1;labelBackgroundColor=none;strokeColor=#457B9D;fontColor=#1D3557;" parent="2e49270ec7c68f3f-85" vertex="1" connectable="0">
                    <mxGeometry width="30" height="26" as="geometry"/>
                </mxCell>
                <mxCell id="2e49270ec7c68f3f-87" value="row 3" style="shape=partialRectangle;top=0;left=0;right=0;bottom=0;html=1;align=left;verticalAlign=top;fillColor=none;spacingLeft=34;spacingRight=4;whiteSpace=wrap;overflow=hidden;rotatable=0;points=[[0,0.5],[1,0.5]];portConstraint=eastwest;dropTarget=0;rounded=1;labelBackgroundColor=none;strokeColor=#457B9D;fontColor=#1D3557;" parent="2e49270ec7c68f3f-80" vertex="1">
                    <mxGeometry y="108" width="160" height="26" as="geometry"/>
                </mxCell>
                <mxCell id="2e49270ec7c68f3f-88" value="" style="shape=partialRectangle;top=0;left=0;bottom=0;html=1;fillColor=none;align=left;verticalAlign=top;spacingLeft=4;spacingRight=4;whiteSpace=wrap;overflow=hidden;rotatable=0;points=[];portConstraint=eastwest;part=1;rounded=1;labelBackgroundColor=none;strokeColor=#457B9D;fontColor=#1D3557;" parent="2e49270ec7c68f3f-87" vertex="1" connectable="0">
                    <mxGeometry width="30" height="26" as="geometry"/>
                </mxCell>
                <mxCell id="2e49270ec7c68f3f-89" value="" style="shape=partialRectangle;top=0;left=0;right=0;bottom=0;html=1;align=left;verticalAlign=top;fillColor=none;spacingLeft=34;spacingRight=4;whiteSpace=wrap;overflow=hidden;rotatable=0;points=[[0,0.5],[1,0.5]];portConstraint=eastwest;dropTarget=0;rounded=1;labelBackgroundColor=none;strokeColor=#457B9D;fontColor=#1D3557;" parent="2e49270ec7c68f3f-80" vertex="1">
                    <mxGeometry y="134" width="160" height="10" as="geometry"/>
                </mxCell>
                <mxCell id="2e49270ec7c68f3f-90" value="" style="shape=partialRectangle;top=0;left=0;bottom=0;html=1;fillColor=none;align=left;verticalAlign=top;spacingLeft=4;spacingRight=4;whiteSpace=wrap;overflow=hidden;rotatable=0;points=[];portConstraint=eastwest;part=1;rounded=1;labelBackgroundColor=none;strokeColor=#457B9D;fontColor=#1D3557;" parent="2e49270ec7c68f3f-89" vertex="1" connectable="0">
                    <mxGeometry width="30" height="10" as="geometry"/>
                </mxCell>
                <mxCell id="2e49270ec7c68f3f-91" value="" style="edgeStyle=orthogonalEdgeStyle;html=1;endArrow=ERoneToMany;endFill=0;labelBackgroundColor=none;fontFamily=Verdana;fontSize=14;entryX=0;entryY=0.5;rounded=1;strokeColor=#457B9D;fontColor=default;startArrow=ERmandOne;startFill=0;exitX=1;exitY=0.76;exitDx=0;exitDy=0;exitPerimeter=0;" parent="1" source="2e49270ec7c68f3f-81" target="2e49270ec7c68f3f-2" edge="1">
                    <mxGeometry width="100" height="100" relative="1" as="geometry">
                        <mxPoint x="204" y="312" as="sourcePoint"/>
                        <mxPoint x="170" y="200" as="targetPoint"/>
                        <Array as="points">
                            <mxPoint x="230" y="313"/>
                            <mxPoint x="230" y="181"/>
                        </Array>
                    </mxGeometry>
                </mxCell>
                <mxCell id="4" value="" style="edgeStyle=orthogonalEdgeStyle;html=1;endArrow=ERoneToMany;startArrow=ERmandOne;labelBackgroundColor=none;fontFamily=Verdana;fontSize=14;rounded=1;strokeColor=#457B9D;fontColor=default;startFill=0;endFill=0;exitX=0;exitY=0.5;exitDx=0;exitDy=0;entryX=0.5;entryY=1;entryDx=0;entryDy=0;" edge="1" parent="1" source="2e49270ec7c68f3f-35" target="2e49270ec7c68f3f-19">
                    <mxGeometry width="100" height="100" relative="1" as="geometry">
                        <mxPoint x="564" y="444" as="sourcePoint"/>
                        <mxPoint x="396" y="540" as="targetPoint"/>
                        <Array as="points">
                            <mxPoint x="552" y="448"/>
                            <mxPoint x="552" y="600"/>
                            <mxPoint x="396" y="600"/>
                        </Array>
                    </mxGeometry>
                </mxCell>
            </root>
        </mxGraphModel>
    </diagram>
</mxfile>